# xmcd
#
# Track frame offsets:
#	151
#	13195
#	34122
#	44863
#	62825
#	73317
#	90075
#	104486
#	120079
#	136721
#	151237
#	161899
#	174124
#	187277
#	202022
#
# Disc length: 2862 seconds
#
# Revision: 0
# Processed by: cddbd v1.5.2PL0 Copyright (c) Steve Scherf et al.
# Submitted via: EZCDAudioConverter 7.1.5.1
#
DISCID=cf0b2c0f
DTITLE=Juke Box Country Band - Cowgirl Dorée
DYEAR=1900
DGENRE=Country
TTITLE0=Cowgirl Dorée
TTITLE1=Elle s'en va
TTITLE2=L'amour vrai
TTITLE3=Quand on est en amour
TTITLE4=Chanteuse de prairie
TTITLE5=Je pensais toujours à toi
TTITLE6=Une autre chambre d'hôtel
TTITLE7=Pardonne-moi
TTITLE8=Lady
TTITLE9=Laisse-moi vivre ma vie
TTITLE10=J'chu tanné de travailler dans l'bois
TTITLE11=Les cowboys du Québec
TTITLE12=Ce n'est qu'un rêve
TTITLE13=Ce soir je pleure sur notre amour
TTITLE14=Celui qui gagne
EXTD=
EXTT0=
EXTT1=
EXTT2=
EXTT3=
EXTT4=
EXTT5=
EXTT6=
EXTT7=
EXTT8=
EXTT9=
EXTT10=
EXTT11=
EXTT12=
EXTT13=
EXTT14=
PLAYORDER=
